<svg id="Capa_1" data-name="Capa 1" xmlns="http://www.w3.org/2000/svg" viewBox="0 0 527 400"><title>logo</title><path d="M193.37,280.78c0,34-28.64,61.72-63.85,61.72s-63.86-27.69-63.86-61.72V270.63H1v10.15c0,34.31,14.39,65.36,37.63,87.84A130.45,130.45,0,0,0,129.52,405C200.5,405,258,349.39,258,280.78V5H193.37Z" transform="translate(-1 -5)"/><path d="M353.06,226.8h54.38c65,0,117.86-49.75,117.86-110.89S472.42,5,407.44,5H269.35V72.19h1.18v0H407.44c25.6,0,46.42,19.59,46.42,43.69S433,159.59,407.44,159.59H269.35v81.52l163.4,163.75-.13.14H528v-2.88Z" transform="translate(-1 -5)"/></svg>